<?xml version="1.0" encoding="UTF-8" standalone="no"?>
<svg
   xmlns:dc="http://purl.org/dc/elements/1.1/"
   xmlns:cc="http://creativecommons.org/ns#"
   xmlns:rdf="http://www.w3.org/1999/02/22-rdf-syntax-ns#"
   xmlns:svg="http://www.w3.org/2000/svg"
   xmlns="http://www.w3.org/2000/svg"
   xmlns:sodipodi="http://sodipodi.sourceforge.net/DTD/sodipodi-0.dtd"
   xmlns:inkscape="http://www.inkscape.org/namespaces/inkscape"
   width="512"
   height="512"
   viewBox="0 0 511.99998 511.99998"
   version="1.1"
   id="svg4"
   sodipodi:docname="rsd-logo.svg"
   inkscape:version="1.0.2-2 (e86c870879, 2021-01-15)">
  <metadata
     id="metadata10">
    <rdf:RDF>
      <cc:Work
         rdf:about="">
        <dc:format>image/svg+xml</dc:format>
        <dc:type
           rdf:resource="http://purl.org/dc/dcmitype/StillImage" />
        <dc:title></dc:title>
      </cc:Work>
    </rdf:RDF>
  </metadata>
  <defs
     id="defs8" />
  <sodipodi:namedview
     pagecolor="#ffffff"
     bordercolor="#666666"
     borderopacity="1"
     objecttolerance="10"
     gridtolerance="10"
     guidetolerance="10"
     inkscape:pageopacity="0"
     inkscape:pageshadow="2"
     inkscape:window-width="1366"
     inkscape:window-height="705"
     id="namedview6"
     showgrid="false"
     inkscape:zoom="0.71355616"
     inkscape:cx="240.51819"
     inkscape:cy="243.21831"
     inkscape:window-x="-8"
     inkscape:window-y="-8"
     inkscape:window-maximized="1"
     inkscape:current-layer="svg4"
     units="px" />
  <path
     d="m 200.21485,234.18722 c 0,9.75327 -5.31933,15.60805 -16.67191,15.60805 h -18.79617 v -30.86264 h 18.79966 c 11.34909,0 16.66842,6.02968 16.66842,15.25459 z m -83.98954,-40.43745 18.19773,25.24232 v 99.24762 h 30.32723 v -46.98865 h 7.2721 l 25.89678,46.99916 h 34.22925 l -28.73144,-49.30533 c 16.52601,-4.02179 28.03121,-18.99573 27.66056,-35.99999 0,-21.63783 -15.2511,-39.19513 -45.75681,-39.19513 z"
     fill="#fff"
     stroke="#ffffff"
     stroke-width="3.49956"
     id="path2"
     style="fill:#ff4654;fill-opacity:1"
     sodipodi:nodetypes="ssccssccccccccccsc" />
  <path
     d="m 323.06937,192 h -47.53422 v 53.83391 l 31.64176,28.63513 v -52.25898 h 17.03787 c 10.73816,0 16.03564,5.29745 16.03564,13.60159 v 39.94595 c 0,8.30414 -5.01113,13.88806 -16.03564,13.88806 h -48.67964 v 30.35315 h 47.53422 c 25.48523,0.14318 49.39549,-12.59939 49.39549,-42.09353 V 234.80945 C 372.46485,205.02895 348.55458,192 323.06937,192 Z"
     id="path835"
     sodipodi:nodetypes="sccccsssscccsss"
     style="fill:#7289da;fill-opacity:1;stroke:none;stroke-width:1.43175;stroke-opacity:1" />
  <text
     xml:space="preserve"
     style="font-style:normal;font-variant:normal;font-weight:normal;font-stretch:normal;font-size:87.3813px;line-height:1.25;font-family:Nevis;-inkscape-font-specification:'Nevis, Normal';font-variant-ligatures:normal;font-variant-caps:normal;font-variant-numeric:normal;font-variant-east-asian:normal;fill:#000000;fill-opacity:1;stroke:none;stroke-width:2.18453"
     x="232.40001"
     y="314"
     id="text848"><tspan
       sodipodi:role="line"
       id="tspan850"
       x="232.40001"
       y="314">s</tspan></text>
</svg>
